<?xml version="1.0" encoding="utf-8" standalone="no"?>
<!DOCTYPE svg PUBLIC "-//W3C//DTD SVG 1.1//EN"
  "http://www.w3.org/Graphics/SVG/1.1/DTD/svg11.dtd">
<svg xmlns:xlink="http://www.w3.org/1999/xlink" width="864pt" height="576pt" viewBox="0 0 864 576" xmlns="http://www.w3.org/2000/svg" version="1.1">
 <metadata>
  <rdf:RDF xmlns:dc="http://purl.org/dc/elements/1.1/" xmlns:cc="http://creativecommons.org/ns#" xmlns:rdf="http://www.w3.org/1999/02/22-rdf-syntax-ns#">
   <cc:Work>
    <dc:type rdf:resource="http://purl.org/dc/dcmitype/StillImage"/>
    <dc:date>2025-01-08T21:13:30.585726</dc:date>
    <dc:format>image/svg+xml</dc:format>
    <dc:creator>
     <cc:Agent>
      <dc:title>Matplotlib v3.7.5, https://matplotlib.org/</dc:title>
     </cc:Agent>
    </dc:creator>
   </cc:Work>
  </rdf:RDF>
 </metadata>
 <defs>
  <style type="text/css">*{stroke-linejoin: round; stroke-linecap: butt}</style>
 </defs>
 <g id="figure_1">
  <g id="patch_1">
   <path d="M 0 576 
L 864 576 
L 864 0 
L 0 0 
z
" style="fill: #ffffff"/>
  </g>
  <g id="axes_1">
   <g id="patch_2">
    <path d="M 51.32 530.44 
L 750.13 530.44 
L 750.13 28.32 
L 51.32 28.32 
z
" style="fill: #ffffff"/>
   </g>
   <g id="matplotlib.axis_1">
    <g id="xtick_1">
     <g id="line2d_1">
      <path d="M 72.316602 530.44 
L 72.316602 28.32 
" clip-path="url(#pbb09579b27)" style="fill: none; stroke: #b0b0b0; stroke-width: 0.8; stroke-linecap: square"/>
     </g>
     <g id="line2d_2">
      <defs>
       <path id="mef3f21b602" d="M 0 0 
L 0 3.5 
" style="stroke: #000000; stroke-width: 0.8"/>
      </defs>
      <g>
       <use xlink:href="#mef3f21b602" x="72.316602" y="530.44" style="stroke: #000000; stroke-width: 0.8"/>
      </g>
     </g>
     <g id="text_1">
      <!-- 0 -->
      <g transform="translate(69.135352 545.038437) scale(0.1 -0.1)">
       <defs>
        <path id="DejaVuSans-30" d="M 2034 4250 
Q 1547 4250 1301 3770 
Q 1056 3291 1056 2328 
Q 1056 1369 1301 889 
Q 1547 409 2034 409 
Q 2525 409 2770 889 
Q 3016 1369 3016 2328 
Q 3016 3291 2770 3770 
Q 2525 4250 2034 4250 
z
M 2034 4750 
Q 2819 4750 3233 4129 
Q 3647 3509 3647 2328 
Q 3647 1150 3233 529 
Q 2819 -91 2034 -91 
Q 1250 -91 836 529 
Q 422 1150 422 2328 
Q 422 3509 836 4129 
Q 1250 4750 2034 4750 
z
" transform="scale(0.015625)"/>
       </defs>
       <use xlink:href="#DejaVuSans-30"/>
      </g>
     </g>
    </g>
    <g id="xtick_2">
     <g id="line2d_3">
      <path d="M 179.991487 530.44 
L 179.991487 28.32 
" clip-path="url(#pbb09579b27)" style="fill: none; stroke: #b0b0b0; stroke-width: 0.8; stroke-linecap: square"/>
     </g>
     <g id="line2d_4">
      <g>
       <use xlink:href="#mef3f21b602" x="179.991487" y="530.44" style="stroke: #000000; stroke-width: 0.8"/>
      </g>
     </g>
     <g id="text_2">
      <!-- 10 -->
      <g transform="translate(173.628987 545.038437) scale(0.1 -0.1)">
       <defs>
        <path id="DejaVuSans-31" d="M 794 531 
L 1825 531 
L 1825 4091 
L 703 3866 
L 703 4441 
L 1819 4666 
L 2450 4666 
L 2450 531 
L 3481 531 
L 3481 0 
L 794 0 
L 794 531 
z
" transform="scale(0.015625)"/>
       </defs>
       <use xlink:href="#DejaVuSans-31"/>
       <use xlink:href="#DejaVuSans-30" x="63.623047"/>
      </g>
     </g>
    </g>
    <g id="xtick_3">
     <g id="line2d_5">
      <path d="M 287.666371 530.44 
L 287.666371 28.32 
" clip-path="url(#pbb09579b27)" style="fill: none; stroke: #b0b0b0; stroke-width: 0.8; stroke-linecap: square"/>
     </g>
     <g id="line2d_6">
      <g>
       <use xlink:href="#mef3f21b602" x="287.666371" y="530.44" style="stroke: #000000; stroke-width: 0.8"/>
      </g>
     </g>
     <g id="text_3">
      <!-- 20 -->
      <g transform="translate(281.303871 545.038437) scale(0.1 -0.1)">
       <defs>
        <path id="DejaVuSans-32" d="M 1228 531 
L 3431 531 
L 3431 0 
L 469 0 
L 469 531 
Q 828 903 1448 1529 
Q 2069 2156 2228 2338 
Q 2531 2678 2651 2914 
Q 2772 3150 2772 3378 
Q 2772 3750 2511 3984 
Q 2250 4219 1831 4219 
Q 1534 4219 1204 4116 
Q 875 4013 500 3803 
L 500 4441 
Q 881 4594 1212 4672 
Q 1544 4750 1819 4750 
Q 2544 4750 2975 4387 
Q 3406 4025 3406 3419 
Q 3406 3131 3298 2873 
Q 3191 2616 2906 2266 
Q 2828 2175 2409 1742 
Q 1991 1309 1228 531 
z
" transform="scale(0.015625)"/>
       </defs>
       <use xlink:href="#DejaVuSans-32"/>
       <use xlink:href="#DejaVuSans-30" x="63.623047"/>
      </g>
     </g>
    </g>
    <g id="xtick_4">
     <g id="line2d_7">
      <path d="M 395.341256 530.44 
L 395.341256 28.32 
" clip-path="url(#pbb09579b27)" style="fill: none; stroke: #b0b0b0; stroke-width: 0.8; stroke-linecap: square"/>
     </g>
     <g id="line2d_8">
      <g>
       <use xlink:href="#mef3f21b602" x="395.341256" y="530.44" style="stroke: #000000; stroke-width: 0.8"/>
      </g>
     </g>
     <g id="text_4">
      <!-- 30 -->
      <g transform="translate(388.978756 545.038437) scale(0.1 -0.1)">
       <defs>
        <path id="DejaVuSans-33" d="M 2597 2516 
Q 3050 2419 3304 2112 
Q 3559 1806 3559 1356 
Q 3559 666 3084 287 
Q 2609 -91 1734 -91 
Q 1441 -91 1130 -33 
Q 819 25 488 141 
L 488 750 
Q 750 597 1062 519 
Q 1375 441 1716 441 
Q 2309 441 2620 675 
Q 2931 909 2931 1356 
Q 2931 1769 2642 2001 
Q 2353 2234 1838 2234 
L 1294 2234 
L 1294 2753 
L 1863 2753 
Q 2328 2753 2575 2939 
Q 2822 3125 2822 3475 
Q 2822 3834 2567 4026 
Q 2313 4219 1838 4219 
Q 1578 4219 1281 4162 
Q 984 4106 628 3988 
L 628 4550 
Q 988 4650 1302 4700 
Q 1616 4750 1894 4750 
Q 2613 4750 3031 4423 
Q 3450 4097 3450 3541 
Q 3450 3153 3228 2886 
Q 3006 2619 2597 2516 
z
" transform="scale(0.015625)"/>
       </defs>
       <use xlink:href="#DejaVuSans-33"/>
       <use xlink:href="#DejaVuSans-30" x="63.623047"/>
      </g>
     </g>
    </g>
    <g id="xtick_5">
     <g id="line2d_9">
      <path d="M 503.01614 530.44 
L 503.01614 28.32 
" clip-path="url(#pbb09579b27)" style="fill: none; stroke: #b0b0b0; stroke-width: 0.8; stroke-linecap: square"/>
     </g>
     <g id="line2d_10">
      <g>
       <use xlink:href="#mef3f21b602" x="503.01614" y="530.44" style="stroke: #000000; stroke-width: 0.8"/>
      </g>
     </g>
     <g id="text_5">
      <!-- 40 -->
      <g transform="translate(496.65364 545.038437) scale(0.1 -0.1)">
       <defs>
        <path id="DejaVuSans-34" d="M 2419 4116 
L 825 1625 
L 2419 1625 
L 2419 4116 
z
M 2253 4666 
L 3047 4666 
L 3047 1625 
L 3713 1625 
L 3713 1100 
L 3047 1100 
L 3047 0 
L 2419 0 
L 2419 1100 
L 313 1100 
L 313 1709 
L 2253 4666 
z
" transform="scale(0.015625)"/>
       </defs>
       <use xlink:href="#DejaVuSans-34"/>
       <use xlink:href="#DejaVuSans-30" x="63.623047"/>
      </g>
     </g>
    </g>
    <g id="xtick_6">
     <g id="line2d_11">
      <path d="M 610.691025 530.44 
L 610.691025 28.32 
" clip-path="url(#pbb09579b27)" style="fill: none; stroke: #b0b0b0; stroke-width: 0.8; stroke-linecap: square"/>
     </g>
     <g id="line2d_12">
      <g>
       <use xlink:href="#mef3f21b602" x="610.691025" y="530.44" style="stroke: #000000; stroke-width: 0.8"/>
      </g>
     </g>
     <g id="text_6">
      <!-- 50 -->
      <g transform="translate(604.328525 545.038437) scale(0.1 -0.1)">
       <defs>
        <path id="DejaVuSans-35" d="M 691 4666 
L 3169 4666 
L 3169 4134 
L 1269 4134 
L 1269 2991 
Q 1406 3038 1543 3061 
Q 1681 3084 1819 3084 
Q 2600 3084 3056 2656 
Q 3513 2228 3513 1497 
Q 3513 744 3044 326 
Q 2575 -91 1722 -91 
Q 1428 -91 1123 -41 
Q 819 9 494 109 
L 494 744 
Q 775 591 1075 516 
Q 1375 441 1709 441 
Q 2250 441 2565 725 
Q 2881 1009 2881 1497 
Q 2881 1984 2565 2268 
Q 2250 2553 1709 2553 
Q 1456 2553 1204 2497 
Q 953 2441 691 2322 
L 691 4666 
z
" transform="scale(0.015625)"/>
       </defs>
       <use xlink:href="#DejaVuSans-35"/>
       <use xlink:href="#DejaVuSans-30" x="63.623047"/>
      </g>
     </g>
    </g>
    <g id="xtick_7">
     <g id="line2d_13">
      <path d="M 718.365909 530.44 
L 718.365909 28.32 
" clip-path="url(#pbb09579b27)" style="fill: none; stroke: #b0b0b0; stroke-width: 0.8; stroke-linecap: square"/>
     </g>
     <g id="line2d_14">
      <g>
       <use xlink:href="#mef3f21b602" x="718.365909" y="530.44" style="stroke: #000000; stroke-width: 0.8"/>
      </g>
     </g>
     <g id="text_7">
      <!-- 60 -->
      <g transform="translate(712.003409 545.038437) scale(0.1 -0.1)">
       <defs>
        <path id="DejaVuSans-36" d="M 2113 2584 
Q 1688 2584 1439 2293 
Q 1191 2003 1191 1497 
Q 1191 994 1439 701 
Q 1688 409 2113 409 
Q 2538 409 2786 701 
Q 3034 994 3034 1497 
Q 3034 2003 2786 2293 
Q 2538 2584 2113 2584 
z
M 3366 4563 
L 3366 3988 
Q 3128 4100 2886 4159 
Q 2644 4219 2406 4219 
Q 1781 4219 1451 3797 
Q 1122 3375 1075 2522 
Q 1259 2794 1537 2939 
Q 1816 3084 2150 3084 
Q 2853 3084 3261 2657 
Q 3669 2231 3669 1497 
Q 3669 778 3244 343 
Q 2819 -91 2113 -91 
Q 1303 -91 875 529 
Q 447 1150 447 2328 
Q 447 3434 972 4092 
Q 1497 4750 2381 4750 
Q 2619 4750 2861 4703 
Q 3103 4656 3366 4563 
z
" transform="scale(0.015625)"/>
       </defs>
       <use xlink:href="#DejaVuSans-36"/>
       <use xlink:href="#DejaVuSans-30" x="63.623047"/>
      </g>
     </g>
    </g>
    <g id="text_8">
     <!-- Intervals -->
     <g transform="translate(370.270625 561.755937) scale(0.14 -0.14)">
      <defs>
       <path id="DejaVuSans-49" d="M 628 4666 
L 1259 4666 
L 1259 0 
L 628 0 
L 628 4666 
z
" transform="scale(0.015625)"/>
       <path id="DejaVuSans-6e" d="M 3513 2113 
L 3513 0 
L 2938 0 
L 2938 2094 
Q 2938 2591 2744 2837 
Q 2550 3084 2163 3084 
Q 1697 3084 1428 2787 
Q 1159 2491 1159 1978 
L 1159 0 
L 581 0 
L 581 3500 
L 1159 3500 
L 1159 2956 
Q 1366 3272 1645 3428 
Q 1925 3584 2291 3584 
Q 2894 3584 3203 3211 
Q 3513 2838 3513 2113 
z
" transform="scale(0.015625)"/>
       <path id="DejaVuSans-74" d="M 1172 4494 
L 1172 3500 
L 2356 3500 
L 2356 3053 
L 1172 3053 
L 1172 1153 
Q 1172 725 1289 603 
Q 1406 481 1766 481 
L 2356 481 
L 2356 0 
L 1766 0 
Q 1100 0 847 248 
Q 594 497 594 1153 
L 594 3053 
L 172 3053 
L 172 3500 
L 594 3500 
L 594 4494 
L 1172 4494 
z
" transform="scale(0.015625)"/>
       <path id="DejaVuSans-65" d="M 3597 1894 
L 3597 1613 
L 953 1613 
Q 991 1019 1311 708 
Q 1631 397 2203 397 
Q 2534 397 2845 478 
Q 3156 559 3463 722 
L 3463 178 
Q 3153 47 2828 -22 
Q 2503 -91 2169 -91 
Q 1331 -91 842 396 
Q 353 884 353 1716 
Q 353 2575 817 3079 
Q 1281 3584 2069 3584 
Q 2775 3584 3186 3129 
Q 3597 2675 3597 1894 
z
M 3022 2063 
Q 3016 2534 2758 2815 
Q 2500 3097 2075 3097 
Q 1594 3097 1305 2825 
Q 1016 2553 972 2059 
L 3022 2063 
z
" transform="scale(0.015625)"/>
       <path id="DejaVuSans-72" d="M 2631 2963 
Q 2534 3019 2420 3045 
Q 2306 3072 2169 3072 
Q 1681 3072 1420 2755 
Q 1159 2438 1159 1844 
L 1159 0 
L 581 0 
L 581 3500 
L 1159 3500 
L 1159 2956 
Q 1341 3275 1631 3429 
Q 1922 3584 2338 3584 
Q 2397 3584 2469 3576 
Q 2541 3569 2628 3553 
L 2631 2963 
z
" transform="scale(0.015625)"/>
       <path id="DejaVuSans-76" d="M 191 3500 
L 800 3500 
L 1894 563 
L 2988 3500 
L 3597 3500 
L 2284 0 
L 1503 0 
L 191 3500 
z
" transform="scale(0.015625)"/>
       <path id="DejaVuSans-61" d="M 2194 1759 
Q 1497 1759 1228 1600 
Q 959 1441 959 1056 
Q 959 750 1161 570 
Q 1363 391 1709 391 
Q 2188 391 2477 730 
Q 2766 1069 2766 1631 
L 2766 1759 
L 2194 1759 
z
M 3341 1997 
L 3341 0 
L 2766 0 
L 2766 531 
Q 2569 213 2275 61 
Q 1981 -91 1556 -91 
Q 1019 -91 701 211 
Q 384 513 384 1019 
Q 384 1609 779 1909 
Q 1175 2209 1959 2209 
L 2766 2209 
L 2766 2266 
Q 2766 2663 2505 2880 
Q 2244 3097 1772 3097 
Q 1472 3097 1187 3025 
Q 903 2953 641 2809 
L 641 3341 
Q 956 3463 1253 3523 
Q 1550 3584 1831 3584 
Q 2591 3584 2966 3190 
Q 3341 2797 3341 1997 
z
" transform="scale(0.015625)"/>
       <path id="DejaVuSans-6c" d="M 603 4863 
L 1178 4863 
L 1178 0 
L 603 0 
L 603 4863 
z
" transform="scale(0.015625)"/>
       <path id="DejaVuSans-73" d="M 2834 3397 
L 2834 2853 
Q 2591 2978 2328 3040 
Q 2066 3103 1784 3103 
Q 1356 3103 1142 2972 
Q 928 2841 928 2578 
Q 928 2378 1081 2264 
Q 1234 2150 1697 2047 
L 1894 2003 
Q 2506 1872 2764 1633 
Q 3022 1394 3022 966 
Q 3022 478 2636 193 
Q 2250 -91 1575 -91 
Q 1294 -91 989 -36 
Q 684 19 347 128 
L 347 722 
Q 666 556 975 473 
Q 1284 391 1588 391 
Q 1994 391 2212 530 
Q 2431 669 2431 922 
Q 2431 1156 2273 1281 
Q 2116 1406 1581 1522 
L 1381 1569 
Q 847 1681 609 1914 
Q 372 2147 372 2553 
Q 372 3047 722 3315 
Q 1072 3584 1716 3584 
Q 2034 3584 2315 3537 
Q 2597 3491 2834 3397 
z
" transform="scale(0.015625)"/>
      </defs>
      <use xlink:href="#DejaVuSans-49"/>
      <use xlink:href="#DejaVuSans-6e" x="29.492188"/>
      <use xlink:href="#DejaVuSans-74" x="92.871094"/>
      <use xlink:href="#DejaVuSans-65" x="132.080078"/>
      <use xlink:href="#DejaVuSans-72" x="193.603516"/>
      <use xlink:href="#DejaVuSans-76" x="234.716797"/>
      <use xlink:href="#DejaVuSans-61" x="293.896484"/>
      <use xlink:href="#DejaVuSans-6c" x="355.175781"/>
      <use xlink:href="#DejaVuSans-73" x="382.958984"/>
     </g>
    </g>
   </g>
   <g id="matplotlib.axis_2">
    <g id="ytick_1">
     <g id="line2d_15">
      <path d="M 51.32 530.44 
L 750.13 530.44 
" clip-path="url(#pbb09579b27)" style="fill: none; stroke: #b0b0b0; stroke-width: 0.8; stroke-linecap: square"/>
     </g>
     <g id="line2d_16">
      <defs>
       <path id="m7b41363f6c" d="M 0 0 
L -3.5 0 
" style="stroke: #000000; stroke-width: 0.8"/>
      </defs>
      <g>
       <use xlink:href="#m7b41363f6c" x="51.32" y="530.44" style="stroke: #000000; stroke-width: 0.8"/>
      </g>
     </g>
     <g id="text_9">
      <!-- 0.0 -->
      <g transform="translate(28.416875 534.239219) scale(0.1 -0.1)">
       <defs>
        <path id="DejaVuSans-2e" d="M 684 794 
L 1344 794 
L 1344 0 
L 684 0 
L 684 794 
z
" transform="scale(0.015625)"/>
       </defs>
       <use xlink:href="#DejaVuSans-30"/>
       <use xlink:href="#DejaVuSans-2e" x="63.623047"/>
       <use xlink:href="#DejaVuSans-30" x="95.410156"/>
      </g>
     </g>
    </g>
    <g id="ytick_2">
     <g id="line2d_17">
      <path d="M 51.32 430.016 
L 750.13 430.016 
" clip-path="url(#pbb09579b27)" style="fill: none; stroke: #b0b0b0; stroke-width: 0.8; stroke-linecap: square"/>
     </g>
     <g id="line2d_18">
      <g>
       <use xlink:href="#m7b41363f6c" x="51.32" y="430.016" style="stroke: #000000; stroke-width: 0.8"/>
      </g>
     </g>
     <g id="text_10">
      <!-- 0.2 -->
      <g transform="translate(28.416875 433.815219) scale(0.1 -0.1)">
       <use xlink:href="#DejaVuSans-30"/>
       <use xlink:href="#DejaVuSans-2e" x="63.623047"/>
       <use xlink:href="#DejaVuSans-32" x="95.410156"/>
      </g>
     </g>
    </g>
    <g id="ytick_3">
     <g id="line2d_19">
      <path d="M 51.32 329.592 
L 750.13 329.592 
" clip-path="url(#pbb09579b27)" style="fill: none; stroke: #b0b0b0; stroke-width: 0.8; stroke-linecap: square"/>
     </g>
     <g id="line2d_20">
      <g>
       <use xlink:href="#m7b41363f6c" x="51.32" y="329.592" style="stroke: #000000; stroke-width: 0.8"/>
      </g>
     </g>
     <g id="text_11">
      <!-- 0.4 -->
      <g transform="translate(28.416875 333.391219) scale(0.1 -0.1)">
       <use xlink:href="#DejaVuSans-30"/>
       <use xlink:href="#DejaVuSans-2e" x="63.623047"/>
       <use xlink:href="#DejaVuSans-34" x="95.410156"/>
      </g>
     </g>
    </g>
    <g id="ytick_4">
     <g id="line2d_21">
      <path d="M 51.32 229.168 
L 750.13 229.168 
" clip-path="url(#pbb09579b27)" style="fill: none; stroke: #b0b0b0; stroke-width: 0.8; stroke-linecap: square"/>
     </g>
     <g id="line2d_22">
      <g>
       <use xlink:href="#m7b41363f6c" x="51.32" y="229.168" style="stroke: #000000; stroke-width: 0.8"/>
      </g>
     </g>
     <g id="text_12">
      <!-- 0.6 -->
      <g transform="translate(28.416875 232.967219) scale(0.1 -0.1)">
       <use xlink:href="#DejaVuSans-30"/>
       <use xlink:href="#DejaVuSans-2e" x="63.623047"/>
       <use xlink:href="#DejaVuSans-36" x="95.410156"/>
      </g>
     </g>
    </g>
    <g id="ytick_5">
     <g id="line2d_23">
      <path d="M 51.32 128.744 
L 750.13 128.744 
" clip-path="url(#pbb09579b27)" style="fill: none; stroke: #b0b0b0; stroke-width: 0.8; stroke-linecap: square"/>
     </g>
     <g id="line2d_24">
      <g>
       <use xlink:href="#m7b41363f6c" x="51.32" y="128.744" style="stroke: #000000; stroke-width: 0.8"/>
      </g>
     </g>
     <g id="text_13">
      <!-- 0.8 -->
      <g transform="translate(28.416875 132.543219) scale(0.1 -0.1)">
       <defs>
        <path id="DejaVuSans-38" d="M 2034 2216 
Q 1584 2216 1326 1975 
Q 1069 1734 1069 1313 
Q 1069 891 1326 650 
Q 1584 409 2034 409 
Q 2484 409 2743 651 
Q 3003 894 3003 1313 
Q 3003 1734 2745 1975 
Q 2488 2216 2034 2216 
z
M 1403 2484 
Q 997 2584 770 2862 
Q 544 3141 544 3541 
Q 544 4100 942 4425 
Q 1341 4750 2034 4750 
Q 2731 4750 3128 4425 
Q 3525 4100 3525 3541 
Q 3525 3141 3298 2862 
Q 3072 2584 2669 2484 
Q 3125 2378 3379 2068 
Q 3634 1759 3634 1313 
Q 3634 634 3220 271 
Q 2806 -91 2034 -91 
Q 1263 -91 848 271 
Q 434 634 434 1313 
Q 434 1759 690 2068 
Q 947 2378 1403 2484 
z
M 1172 3481 
Q 1172 3119 1398 2916 
Q 1625 2713 2034 2713 
Q 2441 2713 2670 2916 
Q 2900 3119 2900 3481 
Q 2900 3844 2670 4047 
Q 2441 4250 2034 4250 
Q 1625 4250 1398 4047 
Q 1172 3844 1172 3481 
z
" transform="scale(0.015625)"/>
       </defs>
       <use xlink:href="#DejaVuSans-30"/>
       <use xlink:href="#DejaVuSans-2e" x="63.623047"/>
       <use xlink:href="#DejaVuSans-38" x="95.410156"/>
      </g>
     </g>
    </g>
    <g id="ytick_6">
     <g id="line2d_25">
      <path d="M 51.32 28.32 
L 750.13 28.32 
" clip-path="url(#pbb09579b27)" style="fill: none; stroke: #b0b0b0; stroke-width: 0.8; stroke-linecap: square"/>
     </g>
     <g id="line2d_26">
      <g>
       <use xlink:href="#m7b41363f6c" x="51.32" y="28.32" style="stroke: #000000; stroke-width: 0.8"/>
      </g>
     </g>
     <g id="text_14">
      <!-- 1.0 -->
      <g transform="translate(28.416875 32.119219) scale(0.1 -0.1)">
       <use xlink:href="#DejaVuSans-31"/>
       <use xlink:href="#DejaVuSans-2e" x="63.623047"/>
       <use xlink:href="#DejaVuSans-30" x="95.410156"/>
      </g>
     </g>
    </g>
    <g id="text_15">
     <!-- Reputation -->
     <g transform="translate(21.505312 317.558437) rotate(-90) scale(0.14 -0.14)">
      <defs>
       <path id="DejaVuSans-52" d="M 2841 2188 
Q 3044 2119 3236 1894 
Q 3428 1669 3622 1275 
L 4263 0 
L 3584 0 
L 2988 1197 
Q 2756 1666 2539 1819 
Q 2322 1972 1947 1972 
L 1259 1972 
L 1259 0 
L 628 0 
L 628 4666 
L 2053 4666 
Q 2853 4666 3247 4331 
Q 3641 3997 3641 3322 
Q 3641 2881 3436 2590 
Q 3231 2300 2841 2188 
z
M 1259 4147 
L 1259 2491 
L 2053 2491 
Q 2509 2491 2742 2702 
Q 2975 2913 2975 3322 
Q 2975 3731 2742 3939 
Q 2509 4147 2053 4147 
L 1259 4147 
z
" transform="scale(0.015625)"/>
       <path id="DejaVuSans-70" d="M 1159 525 
L 1159 -1331 
L 581 -1331 
L 581 3500 
L 1159 3500 
L 1159 2969 
Q 1341 3281 1617 3432 
Q 1894 3584 2278 3584 
Q 2916 3584 3314 3078 
Q 3713 2572 3713 1747 
Q 3713 922 3314 415 
Q 2916 -91 2278 -91 
Q 1894 -91 1617 61 
Q 1341 213 1159 525 
z
M 3116 1747 
Q 3116 2381 2855 2742 
Q 2594 3103 2138 3103 
Q 1681 3103 1420 2742 
Q 1159 2381 1159 1747 
Q 1159 1113 1420 752 
Q 1681 391 2138 391 
Q 2594 391 2855 752 
Q 3116 1113 3116 1747 
z
" transform="scale(0.015625)"/>
       <path id="DejaVuSans-75" d="M 544 1381 
L 544 3500 
L 1119 3500 
L 1119 1403 
Q 1119 906 1312 657 
Q 1506 409 1894 409 
Q 2359 409 2629 706 
Q 2900 1003 2900 1516 
L 2900 3500 
L 3475 3500 
L 3475 0 
L 2900 0 
L 2900 538 
Q 2691 219 2414 64 
Q 2138 -91 1772 -91 
Q 1169 -91 856 284 
Q 544 659 544 1381 
z
M 1991 3584 
L 1991 3584 
z
" transform="scale(0.015625)"/>
       <path id="DejaVuSans-69" d="M 603 3500 
L 1178 3500 
L 1178 0 
L 603 0 
L 603 3500 
z
M 603 4863 
L 1178 4863 
L 1178 4134 
L 603 4134 
L 603 4863 
z
" transform="scale(0.015625)"/>
       <path id="DejaVuSans-6f" d="M 1959 3097 
Q 1497 3097 1228 2736 
Q 959 2375 959 1747 
Q 959 1119 1226 758 
Q 1494 397 1959 397 
Q 2419 397 2687 759 
Q 2956 1122 2956 1747 
Q 2956 2369 2687 2733 
Q 2419 3097 1959 3097 
z
M 1959 3584 
Q 2709 3584 3137 3096 
Q 3566 2609 3566 1747 
Q 3566 888 3137 398 
Q 2709 -91 1959 -91 
Q 1206 -91 779 398 
Q 353 888 353 1747 
Q 353 2609 779 3096 
Q 1206 3584 1959 3584 
z
" transform="scale(0.015625)"/>
      </defs>
      <use xlink:href="#DejaVuSans-52"/>
      <use xlink:href="#DejaVuSans-65" x="64.982422"/>
      <use xlink:href="#DejaVuSans-70" x="126.505859"/>
      <use xlink:href="#DejaVuSans-75" x="189.982422"/>
      <use xlink:href="#DejaVuSans-74" x="253.361328"/>
      <use xlink:href="#DejaVuSans-61" x="292.570312"/>
      <use xlink:href="#DejaVuSans-74" x="353.849609"/>
      <use xlink:href="#DejaVuSans-69" x="393.058594"/>
      <use xlink:href="#DejaVuSans-6f" x="420.841797"/>
      <use xlink:href="#DejaVuSans-6e" x="482.023438"/>
     </g>
    </g>
    <g id="text_16">
     <!-- 1e6 -->
     <g transform="translate(51.32 25.32) scale(0.1 -0.1)">
      <use xlink:href="#DejaVuSans-31"/>
      <use xlink:href="#DejaVuSans-65" x="63.623047"/>
      <use xlink:href="#DejaVuSans-36" x="125.146484"/>
     </g>
    </g>
   </g>
   <g id="line2d_27">
    <path d="M 83.084091 279.38 
L 93.851579 279.38 
L 104.619068 279.38 
L 115.386556 279.38 
L 126.154045 279.38 
L 136.921533 279.38 
L 147.689022 279.38 
L 158.45651 276.702194 
L 169.223998 273.857182 
L 179.991487 273.857182 
L 190.758975 273.857182 
L 201.526464 270.845968 
L 212.293952 270.845968 
L 223.061441 270.845968 
L 233.828929 270.845968 
L 244.596418 267.669557 
L 255.363906 264.329455 
L 266.131394 264.329455 
L 276.898883 264.329455 
L 287.666371 264.329455 
L 298.43386 260.82767 
L 309.201348 257.165709 
L 319.968837 257.165709 
L 330.736325 257.165709 
L 341.503814 253.346584 
L 352.271302 253.346584 
L 363.03879 253.346584 
L 373.806279 253.346584 
L 384.573767 249.373309 
L 395.341256 249.373309 
L 406.108744 249.373309 
L 416.876233 249.373309 
L 427.643721 245.248895 
L 438.41121 240.977862 
L 449.178698 240.977862 
L 459.946186 236.56473 
L 470.713675 236.56473 
L 481.481163 236.56473 
L 492.248652 236.56473 
L 503.01614 236.56473 
L 513.783629 236.56473 
L 524.551117 236.56473 
L 535.318606 236.56473 
L 546.086094 236.56473 
L 556.853582 236.56473 
L 567.621071 236.56473 
L 578.388559 232.01502 
L 589.156048 232.01502 
L 599.923536 232.01502 
L 610.691025 227.334258 
L 621.458513 227.334258 
L 632.226002 222.528969 
L 642.99349 222.528969 
L 653.760978 222.528969 
L 664.528467 222.528969 
L 675.295955 222.528969 
L 686.063444 222.528969 
L 696.830932 222.528969 
L 707.598421 222.528969 
L 718.365909 217.606687 
" clip-path="url(#pbb09579b27)" style="fill: none; stroke: #ee7733; stroke-width: 1.5; stroke-linecap: square"/>
   </g>
   <g id="line2d_28">
    <path d="M 83.084091 279.38 
L 93.851579 276.702194 
L 104.619068 273.857182 
L 115.386556 273.857182 
L 126.154045 273.857182 
L 136.921533 284.883737 
L 147.689022 284.883737 
L 158.45651 284.883737 
L 169.223998 284.883737 
L 179.991487 284.883737 
L 190.758975 284.883737 
L 201.526464 284.883737 
L 212.293952 284.883737 
L 223.061441 284.883737 
L 233.828929 284.883737 
L 244.596418 281.705318 
L 255.363906 278.358186 
L 266.131394 278.358186 
L 276.898883 278.358186 
L 287.666371 278.358186 
L 298.43386 278.358186 
L 309.201348 278.358186 
L 319.968837 278.358186 
L 330.736325 278.358186 
L 341.503814 278.358186 
L 352.271302 278.358186 
L 363.03879 278.358186 
L 373.806279 278.358186 
L 384.573767 274.843848 
L 395.341256 271.163308 
L 406.108744 271.163308 
L 416.876233 271.163308 
L 427.643721 271.163308 
L 438.41121 271.163308 
L 449.178698 271.163308 
L 459.946186 267.318073 
L 470.713675 267.318073 
L 481.481163 267.318073 
L 492.248652 267.318073 
L 503.01614 267.318073 
L 513.783629 263.310654 
L 524.551117 263.310654 
L 535.318606 296.358686 
L 546.086094 292.026896 
L 556.853582 292.026896 
L 567.621071 292.026896 
L 578.388559 292.026896 
L 589.156048 292.026896 
L 599.923536 287.519365 
L 610.691025 287.519365 
L 621.458513 287.519365 
L 632.226002 287.519365 
L 642.99349 287.519365 
L 653.760978 287.519365 
L 664.528467 287.519365 
L 675.295955 287.519365 
L 686.063444 287.519365 
L 696.830932 287.519365 
L 707.598421 282.8381 
L 718.365909 317.42262 
" clip-path="url(#pbb09579b27)" style="fill: none; stroke: #0077bb; stroke-width: 1.5; stroke-linecap: square"/>
   </g>
   <g id="line2d_29">
    <path d="M 83.084091 279.38 
L 93.851579 276.702194 
L 104.619068 273.857182 
L 115.386556 297.27857 
L 126.154045 313.798318 
L 136.921533 310.513951 
L 147.689022 307.05334 
L 158.45651 303.415982 
L 169.223998 327.252623 
L 179.991487 323.38178 
L 190.758975 342.595402 
L 201.526464 356.969089 
L 212.293952 367.917313 
L 223.061441 363.813989 
L 233.828929 359.509314 
L 244.596418 354.999774 
L 255.363906 350.282357 
L 266.131394 388.907938 
L 276.898883 448.98057 
L 287.666371 445.887009 
L 298.43386 442.605655 
L 309.201348 439.12747 
L 319.968837 435.442411 
L 330.736325 454.964334 
L 341.503814 451.629755 
L 352.271302 448.086295 
L 363.03879 444.322905 
L 373.806279 440.327536 
L 384.573767 458.483693 
L 395.341256 454.867425 
L 406.108744 458.383772 
L 416.876233 454.681139 
L 427.643721 450.821844 
L 438.41121 446.802374 
L 449.178698 442.620216 
L 459.946186 438.272861 
L 470.713675 433.7583 
L 481.481163 429.074525 
L 492.248652 424.220531 
L 503.01614 419.195816 
L 513.783629 414.00038 
L 524.551117 408.634224 
L 535.318606 403.098853 
L 546.086094 397.396276 
L 556.853582 391.529004 
L 567.621071 385.500551 
L 578.388559 379.314935 
L 589.156048 390.501667 
L 599.923536 384.445597 
L 610.691025 378.232867 
L 621.458513 371.868998 
L 632.226002 388.900406 
L 642.99349 382.802159 
L 653.760978 376.548756 
L 664.528467 370.14522 
L 675.295955 363.598077 
L 686.063444 356.913856 
L 696.830932 350.100589 
L 707.598421 343.166814 
L 718.365909 336.121568 
" clip-path="url(#pbb09579b27)" style="fill: none; stroke: #33bbee; stroke-width: 1.5; stroke-linecap: square"/>
   </g>
   <g id="line2d_30">
    <path d="M 83.084091 279.38 
L 93.851579 276.702194 
L 104.619068 302.347973 
L 115.386556 299.360861 
L 126.154045 296.20102 
L 136.921533 292.868952 
L 147.689022 289.364656 
L 158.45651 285.688636 
L 169.223998 281.841894 
L 179.991487 277.825436 
L 190.758975 273.641271 
L 201.526464 269.291907 
L 212.293952 264.780359 
L 223.061441 260.110141 
L 233.828929 255.28527 
L 244.596418 250.310767 
L 255.363906 274.677646 
L 266.131394 269.324043 
L 276.898883 263.809761 
L 287.666371 258.141328 
L 298.43386 252.325272 
L 309.201348 267.942209 
L 319.968837 261.762618 
L 330.736325 255.433897 
L 341.503814 248.966089 
L 352.271302 242.369739 
L 363.03879 271.794975 
L 373.806279 264.771823 
L 384.573767 257.599541 
L 395.341256 250.290682 
L 406.108744 242.86031 
L 416.876233 235.488184 
L 427.643721 269.984331 
L 438.41121 262.463577 
L 449.178698 254.966423 
L 459.946186 247.505925 
L 470.713675 242.948683 
L 481.481163 301.436625 
L 492.248652 293.963071 
L 503.01614 308.826827 
L 513.783629 352.466077 
L 524.551117 361.798981 
L 535.318606 355.079109 
L 546.086094 384.348688 
L 556.853582 396.716908 
L 567.621071 390.830555 
L 578.388559 400.552101 
L 589.156048 409.686668 
L 599.923536 415.984759 
L 610.691025 410.682874 
L 621.458513 439.091819 
L 632.226002 434.60839 
L 642.99349 441.846951 
L 653.760978 437.469469 
L 664.528467 447.844775 
L 675.295955 443.704293 
L 686.063444 451.107048 
L 696.830932 447.099629 
L 707.598421 459.889629 
L 718.365909 456.25177 
" clip-path="url(#pbb09579b27)" style="fill: none; stroke: #ee3377; stroke-width: 1.5; stroke-linecap: square"/>
   </g>
   <g id="line2d_31">
    <path d="M 83.084091 279.38 
L 93.851579 302.076828 
L 104.619068 348.687121 
L 115.386556 383.049202 
L 126.154045 414.215288 
L 136.921533 411.833733 
L 147.689022 454.978896 
L 158.45651 464.304771 
L 169.223998 469.156254 
L 179.991487 467.434987 
L 190.758975 472.470246 
L 201.526464 510.385327 
L 212.293952 512.031277 
L 223.061441 518.244509 
L 233.828929 518.925886 
L 244.596418 519.250758 
L 255.363906 518.79885 
L 266.131394 518.313802 
L 276.898883 517.793606 
L 287.666371 517.234746 
L 298.43386 516.634713 
L 309.201348 515.990493 
L 319.968837 515.298571 
L 330.736325 514.554932 
L 341.503814 513.755055 
L 352.271302 512.894923 
L 363.03879 511.969516 
L 373.806279 510.97331 
L 384.573767 509.900781 
L 395.341256 508.745403 
L 406.108744 507.500146 
L 416.876233 506.187102 
L 427.643721 504.802255 
L 438.41121 503.342592 
L 449.178698 501.804599 
L 459.946186 500.184759 
L 470.713675 498.479058 
L 481.481163 496.683477 
L 492.248652 494.794501 
L 503.01614 492.807612 
L 513.783629 490.719295 
L 524.551117 488.525031 
L 535.318606 486.2203 
L 546.086094 483.801086 
L 556.853582 481.262869 
L 567.621071 478.601633 
L 578.388559 475.812859 
L 589.156048 472.892027 
L 599.923536 469.83512 
L 610.691025 466.638122 
L 621.458513 463.296514 
L 632.226002 459.80678 
L 642.99349 456.165405 
L 653.760978 452.368374 
L 664.528467 448.412673 
L 675.295955 444.295289 
L 686.063444 440.013711 
L 696.830932 435.56543 
L 707.598421 430.948939 
L 718.365909 426.162731 
" clip-path="url(#pbb09579b27)" style="fill: none; stroke: #cc3311; stroke-width: 1.5; stroke-linecap: square"/>
   </g>
   <g id="line2d_32">
    <path d="M 83.084091 279.38 
L 93.851579 304.631113 
L 104.619068 327.482092 
L 115.386556 324.58034 
L 126.154045 321.503349 
L 136.921533 318.250616 
L 147.689022 314.820132 
L 158.45651 311.211395 
L 169.223998 307.423904 
L 179.991487 303.457156 
L 190.758975 299.311653 
L 201.526464 294.987396 
L 212.293952 290.48589 
L 223.061441 285.808642 
L 233.828929 280.958163 
L 244.596418 275.937465 
L 255.363906 270.750064 
L 266.131394 265.400477 
L 276.898883 259.894731 
L 287.666371 254.238349 
L 298.43386 248.439366 
L 309.201348 242.505814 
L 319.968837 236.446732 
L 330.736325 230.272664 
L 341.503814 223.99516 
L 352.271302 217.62627 
L 363.03879 211.179551 
L 373.806279 204.669063 
L 384.573767 198.109367 
L 395.341256 191.517034 
L 406.108744 184.90813 
L 416.876233 178.442833 
L 427.643721 172.128674 
L 438.41121 165.971679 
L 449.178698 159.976868 
L 459.946186 154.148761 
L 470.713675 148.491375 
L 481.481163 143.006719 
L 492.248652 137.697302 
L 503.01614 132.564631 
L 513.783629 127.608707 
L 524.551117 122.829529 
L 535.318606 118.226594 
L 546.086094 113.798398 
L 556.853582 109.542931 
L 567.621071 105.458185 
L 578.388559 101.541147 
L 589.156048 97.788804 
L 599.923536 94.197642 
L 610.691025 90.763643 
L 621.458513 87.483293 
L 632.226002 84.352073 
L 642.99349 81.365463 
L 653.760978 78.519447 
L 664.528467 75.809003 
L 675.295955 73.229613 
L 686.063444 70.776254 
L 696.830932 68.444409 
L 707.598421 66.229558 
L 718.365909 64.127181 
" clip-path="url(#pbb09579b27)" style="fill: none; stroke: #009988; stroke-width: 1.5; stroke-linecap: square"/>
   </g>
   <g id="line2d_33">
    <path d="M 83.084091 279.38 
L 93.851579 276.702194 
L 104.619068 273.857182 
L 115.386556 270.845968 
L 126.154045 267.669557 
L 136.921533 264.329455 
L 147.689022 260.82767 
L 158.45651 257.165709 
L 169.223998 253.346584 
L 179.991487 249.373309 
L 190.758975 245.248895 
L 201.526464 240.977862 
L 212.293952 236.56473 
L 223.061441 232.01502 
L 233.828929 227.334258 
L 244.596418 222.528969 
L 255.363906 217.606687 
L 266.131394 212.575445 
L 276.898883 207.443276 
L 287.666371 202.220224 
L 298.43386 196.915828 
L 309.201348 191.540634 
L 319.968837 186.106189 
L 330.736325 180.624043 
L 341.503814 175.106748 
L 352.271302 169.566858 
L 363.03879 164.01793 
L 373.806279 158.472517 
L 384.573767 152.944678 
L 395.341256 147.448472 
L 406.108744 188.938648 
L 416.876233 223.096867 
L 427.643721 215.943666 
L 438.41121 208.892897 
L 449.178698 201.955104 
L 459.946186 195.13983 
L 470.713675 188.45611 
L 481.481163 181.912483 
L 492.248652 175.515976 
L 503.01614 169.27362 
L 513.783629 163.190938 
L 524.551117 157.27245 
L 535.318606 151.522674 
L 546.086094 145.944623 
L 556.853582 140.540807 
L 567.621071 135.312734 
L 578.388559 130.261407 
L 589.156048 125.386826 
L 599.923536 120.688991 
L 610.691025 116.166396 
L 621.458513 111.818037 
L 632.226002 107.641403 
L 642.99349 103.633983 
L 653.760978 99.793267 
L 664.528467 96.11574 
L 675.295955 92.597385 
L 686.063444 89.234688 
L 696.830932 86.02363 
L 707.598421 82.959694 
L 718.365909 80.03836 
" clip-path="url(#pbb09579b27)" style="fill: none; stroke: #ccbb44; stroke-width: 1.5; stroke-linecap: square"/>
   </g>
   <g id="line2d_34">
    <path d="M 83.084091 279.38 
L 93.851579 276.702194 
L 104.619068 273.857182 
L 115.386556 270.845968 
L 126.154045 267.669557 
L 136.921533 264.329455 
L 147.689022 260.82767 
L 158.45651 257.165709 
L 169.223998 253.346584 
L 179.991487 249.373309 
L 190.758975 245.248895 
L 201.526464 240.977862 
L 212.293952 236.56473 
L 223.061441 232.01502 
L 233.828929 227.334258 
L 244.596418 222.528969 
L 255.363906 217.606687 
L 266.131394 212.575445 
L 276.898883 207.443276 
L 287.666371 202.220224 
L 298.43386 196.915828 
L 309.201348 191.540634 
L 319.968837 186.106189 
L 330.736325 180.624043 
L 341.503814 175.106748 
L 352.271302 169.566858 
L 363.03879 164.01793 
L 373.806279 158.472517 
L 384.573767 152.944678 
L 395.341256 147.448472 
L 406.108744 141.996955 
L 416.876233 136.720678 
L 427.643721 131.621148 
L 438.41121 126.698363 
L 449.178698 121.952325 
L 459.946186 117.382029 
L 470.713675 112.98647 
L 481.481163 108.763139 
L 492.248652 104.710026 
L 503.01614 100.82412 
L 513.783629 97.102406 
L 524.551117 93.540869 
L 535.318606 90.135993 
L 546.086094 86.883762 
L 556.853582 83.780158 
L 567.621071 80.820161 
L 578.388559 77.999753 
L 589.156048 75.313913 
L 599.923536 72.758624 
L 610.691025 70.328363 
L 621.458513 68.019114 
L 632.226002 65.825853 
L 642.99349 63.744064 
L 653.760978 61.768724 
L 664.528467 59.895816 
L 675.295955 58.120822 
L 686.063444 56.439222 
L 696.830932 54.847 
L 707.598421 126.372487 
L 718.365909 174.277246 
" clip-path="url(#pbb09579b27)" style="fill: none; stroke: #000000; stroke-width: 1.5; stroke-linecap: square"/>
   </g>
   <g id="patch_3">
    <path d="M 51.32 530.44 
L 51.32 28.32 
" style="fill: none; stroke: #000000; stroke-width: 0.8; stroke-linejoin: miter; stroke-linecap: square"/>
   </g>
   <g id="patch_4">
    <path d="M 750.13 530.44 
L 750.13 28.32 
" style="fill: none; stroke: #000000; stroke-width: 0.8; stroke-linejoin: miter; stroke-linecap: square"/>
   </g>
   <g id="patch_5">
    <path d="M 51.32 530.44 
L 750.13 530.44 
" style="fill: none; stroke: #000000; stroke-width: 0.8; stroke-linejoin: miter; stroke-linecap: square"/>
   </g>
   <g id="patch_6">
    <path d="M 51.32 28.32 
L 750.13 28.32 
" style="fill: none; stroke: #000000; stroke-width: 0.8; stroke-linejoin: miter; stroke-linecap: square"/>
   </g>
   <g id="text_17">
    <!-- Reputation Progression γ = 5 -->
    <g transform="translate(284.07375 22.32) scale(0.16 -0.16)">
     <defs>
      <path id="DejaVuSans-20" transform="scale(0.015625)"/>
      <path id="DejaVuSans-50" d="M 1259 4147 
L 1259 2394 
L 2053 2394 
Q 2494 2394 2734 2622 
Q 2975 2850 2975 3272 
Q 2975 3691 2734 3919 
Q 2494 4147 2053 4147 
L 1259 4147 
z
M 628 4666 
L 2053 4666 
Q 2838 4666 3239 4311 
Q 3641 3956 3641 3272 
Q 3641 2581 3239 2228 
Q 2838 1875 2053 1875 
L 1259 1875 
L 1259 0 
L 628 0 
L 628 4666 
z
" transform="scale(0.015625)"/>
      <path id="DejaVuSans-67" d="M 2906 1791 
Q 2906 2416 2648 2759 
Q 2391 3103 1925 3103 
Q 1463 3103 1205 2759 
Q 947 2416 947 1791 
Q 947 1169 1205 825 
Q 1463 481 1925 481 
Q 2391 481 2648 825 
Q 2906 1169 2906 1791 
z
M 3481 434 
Q 3481 -459 3084 -895 
Q 2688 -1331 1869 -1331 
Q 1566 -1331 1297 -1286 
Q 1028 -1241 775 -1147 
L 775 -588 
Q 1028 -725 1275 -790 
Q 1522 -856 1778 -856 
Q 2344 -856 2625 -561 
Q 2906 -266 2906 331 
L 2906 616 
Q 2728 306 2450 153 
Q 2172 0 1784 0 
Q 1141 0 747 490 
Q 353 981 353 1791 
Q 353 2603 747 3093 
Q 1141 3584 1784 3584 
Q 2172 3584 2450 3431 
Q 2728 3278 2906 2969 
L 2906 3500 
L 3481 3500 
L 3481 434 
z
" transform="scale(0.015625)"/>
      <path id="DejaVuSans-3b3" d="M 1128 2950 
L 1894 788 
L 2988 3500 
L 3597 3500 
L 2181 0 
L 2181 -1331 
L 1606 -1331 
L 1606 0 
L 688 2613 
Q 550 3006 253 3006 
L 100 3006 
L 100 3500 
L 319 3500 
Q 934 3500 1128 2950 
z
" transform="scale(0.015625)"/>
      <path id="DejaVuSans-3d" d="M 678 2906 
L 4684 2906 
L 4684 2381 
L 678 2381 
L 678 2906 
z
M 678 1631 
L 4684 1631 
L 4684 1100 
L 678 1100 
L 678 1631 
z
" transform="scale(0.015625)"/>
     </defs>
     <use xlink:href="#DejaVuSans-52"/>
     <use xlink:href="#DejaVuSans-65" x="64.982422"/>
     <use xlink:href="#DejaVuSans-70" x="126.505859"/>
     <use xlink:href="#DejaVuSans-75" x="189.982422"/>
     <use xlink:href="#DejaVuSans-74" x="253.361328"/>
     <use xlink:href="#DejaVuSans-61" x="292.570312"/>
     <use xlink:href="#DejaVuSans-74" x="353.849609"/>
     <use xlink:href="#DejaVuSans-69" x="393.058594"/>
     <use xlink:href="#DejaVuSans-6f" x="420.841797"/>
     <use xlink:href="#DejaVuSans-6e" x="482.023438"/>
     <use xlink:href="#DejaVuSans-20" x="545.402344"/>
     <use xlink:href="#DejaVuSans-50" x="577.189453"/>
     <use xlink:href="#DejaVuSans-72" x="635.742188"/>
     <use xlink:href="#DejaVuSans-6f" x="674.605469"/>
     <use xlink:href="#DejaVuSans-67" x="735.787109"/>
     <use xlink:href="#DejaVuSans-72" x="799.263672"/>
     <use xlink:href="#DejaVuSans-65" x="838.126953"/>
     <use xlink:href="#DejaVuSans-73" x="899.650391"/>
     <use xlink:href="#DejaVuSans-73" x="951.75"/>
     <use xlink:href="#DejaVuSans-69" x="1003.849609"/>
     <use xlink:href="#DejaVuSans-6f" x="1031.632812"/>
     <use xlink:href="#DejaVuSans-6e" x="1092.814453"/>
     <use xlink:href="#DejaVuSans-20" x="1156.193359"/>
     <use xlink:href="#DejaVuSans-3b3" x="1187.980469"/>
     <use xlink:href="#DejaVuSans-20" x="1247.160156"/>
     <use xlink:href="#DejaVuSans-3d" x="1278.947266"/>
     <use xlink:href="#DejaVuSans-20" x="1362.736328"/>
     <use xlink:href="#DejaVuSans-35" x="1394.523438"/>
    </g>
   </g>
   <g id="legend_1">
    <g id="patch_7">
     <path d="M 759.93 220.593125 
L 850.437812 220.593125 
Q 853.237812 220.593125 853.237812 217.793125 
L 853.237812 38.12 
Q 853.237812 35.32 850.437812 35.32 
L 759.93 35.32 
Q 757.13 35.32 757.13 38.12 
L 757.13 217.793125 
Q 757.13 220.593125 759.93 220.593125 
z
" style="fill: #ffffff; opacity: 0.8; stroke: #cccccc; stroke-linejoin: miter"/>
    </g>
    <g id="text_18">
     <!-- Fault Possibilities -->
     <g transform="translate(762.73 48.518437) scale(0.1 -0.1)">
      <defs>
       <path id="DejaVuSans-46" d="M 628 4666 
L 3309 4666 
L 3309 4134 
L 1259 4134 
L 1259 2759 
L 3109 2759 
L 3109 2228 
L 1259 2228 
L 1259 0 
L 628 0 
L 628 4666 
z
" transform="scale(0.015625)"/>
       <path id="DejaVuSans-62" d="M 3116 1747 
Q 3116 2381 2855 2742 
Q 2594 3103 2138 3103 
Q 1681 3103 1420 2742 
Q 1159 2381 1159 1747 
Q 1159 1113 1420 752 
Q 1681 391 2138 391 
Q 2594 391 2855 752 
Q 3116 1113 3116 1747 
z
M 1159 2969 
Q 1341 3281 1617 3432 
Q 1894 3584 2278 3584 
Q 2916 3584 3314 3078 
Q 3713 2572 3713 1747 
Q 3713 922 3314 415 
Q 2916 -91 2278 -91 
Q 1894 -91 1617 61 
Q 1341 213 1159 525 
L 1159 0 
L 581 0 
L 581 4863 
L 1159 4863 
L 1159 2969 
z
" transform="scale(0.015625)"/>
      </defs>
      <use xlink:href="#DejaVuSans-46"/>
      <use xlink:href="#DejaVuSans-61" x="48.394531"/>
      <use xlink:href="#DejaVuSans-75" x="109.673828"/>
      <use xlink:href="#DejaVuSans-6c" x="173.052734"/>
      <use xlink:href="#DejaVuSans-74" x="200.835938"/>
      <use xlink:href="#DejaVuSans-20" x="240.044922"/>
      <use xlink:href="#DejaVuSans-50" x="271.832031"/>
      <use xlink:href="#DejaVuSans-6f" x="328.509766"/>
      <use xlink:href="#DejaVuSans-73" x="389.691406"/>
      <use xlink:href="#DejaVuSans-73" x="441.791016"/>
      <use xlink:href="#DejaVuSans-69" x="493.890625"/>
      <use xlink:href="#DejaVuSans-62" x="521.673828"/>
      <use xlink:href="#DejaVuSans-69" x="585.150391"/>
      <use xlink:href="#DejaVuSans-6c" x="612.933594"/>
      <use xlink:href="#DejaVuSans-69" x="640.716797"/>
      <use xlink:href="#DejaVuSans-74" x="668.5"/>
      <use xlink:href="#DejaVuSans-69" x="707.708984"/>
      <use xlink:href="#DejaVuSans-65" x="735.492188"/>
      <use xlink:href="#DejaVuSans-73" x="797.015625"/>
     </g>
    </g>
    <g id="line2d_35">
     <path d="M 769.997969 63.335937 
L 783.997969 63.335937 
L 797.997969 63.335937 
" style="fill: none; stroke: #ee7733; stroke-width: 1.5; stroke-linecap: square"/>
    </g>
    <g id="text_19">
     <!-- 1.00 -->
     <g transform="translate(809.197969 68.235937) scale(0.14 -0.14)">
      <use xlink:href="#DejaVuSans-31"/>
      <use xlink:href="#DejaVuSans-2e" x="63.623047"/>
      <use xlink:href="#DejaVuSans-30" x="95.410156"/>
      <use xlink:href="#DejaVuSans-30" x="159.033203"/>
     </g>
    </g>
    <g id="line2d_36">
     <path d="M 769.997969 83.885312 
L 783.997969 83.885312 
L 797.997969 83.885312 
" style="fill: none; stroke: #0077bb; stroke-width: 1.5; stroke-linecap: square"/>
    </g>
    <g id="text_20">
     <!-- 2.00 -->
     <g transform="translate(809.197969 88.785312) scale(0.14 -0.14)">
      <use xlink:href="#DejaVuSans-32"/>
      <use xlink:href="#DejaVuSans-2e" x="63.623047"/>
      <use xlink:href="#DejaVuSans-30" x="95.410156"/>
      <use xlink:href="#DejaVuSans-30" x="159.033203"/>
     </g>
    </g>
    <g id="line2d_37">
     <path d="M 769.997969 104.434687 
L 783.997969 104.434687 
L 797.997969 104.434687 
" style="fill: none; stroke: #33bbee; stroke-width: 1.5; stroke-linecap: square"/>
    </g>
    <g id="text_21">
     <!-- 3.00 -->
     <g transform="translate(809.197969 109.334687) scale(0.14 -0.14)">
      <use xlink:href="#DejaVuSans-33"/>
      <use xlink:href="#DejaVuSans-2e" x="63.623047"/>
      <use xlink:href="#DejaVuSans-30" x="95.410156"/>
      <use xlink:href="#DejaVuSans-30" x="159.033203"/>
     </g>
    </g>
    <g id="line2d_38">
     <path d="M 769.997969 124.984062 
L 783.997969 124.984062 
L 797.997969 124.984062 
" style="fill: none; stroke: #ee3377; stroke-width: 1.5; stroke-linecap: square"/>
    </g>
    <g id="text_22">
     <!-- 4.00 -->
     <g transform="translate(809.197969 129.884062) scale(0.14 -0.14)">
      <use xlink:href="#DejaVuSans-34"/>
      <use xlink:href="#DejaVuSans-2e" x="63.623047"/>
      <use xlink:href="#DejaVuSans-30" x="95.410156"/>
      <use xlink:href="#DejaVuSans-30" x="159.033203"/>
     </g>
    </g>
    <g id="line2d_39">
     <path d="M 769.997969 145.533437 
L 783.997969 145.533437 
L 797.997969 145.533437 
" style="fill: none; stroke: #cc3311; stroke-width: 1.5; stroke-linecap: square"/>
    </g>
    <g id="text_23">
     <!-- 5.00 -->
     <g transform="translate(809.197969 150.433437) scale(0.14 -0.14)">
      <use xlink:href="#DejaVuSans-35"/>
      <use xlink:href="#DejaVuSans-2e" x="63.623047"/>
      <use xlink:href="#DejaVuSans-30" x="95.410156"/>
      <use xlink:href="#DejaVuSans-30" x="159.033203"/>
     </g>
    </g>
    <g id="line2d_40">
     <path d="M 769.997969 166.082812 
L 783.997969 166.082812 
L 797.997969 166.082812 
" style="fill: none; stroke: #009988; stroke-width: 1.5; stroke-linecap: square"/>
    </g>
    <g id="text_24">
     <!-- 6.00 -->
     <g transform="translate(809.197969 170.982812) scale(0.14 -0.14)">
      <use xlink:href="#DejaVuSans-36"/>
      <use xlink:href="#DejaVuSans-2e" x="63.623047"/>
      <use xlink:href="#DejaVuSans-30" x="95.410156"/>
      <use xlink:href="#DejaVuSans-30" x="159.033203"/>
     </g>
    </g>
    <g id="line2d_41">
     <path d="M 769.997969 186.632187 
L 783.997969 186.632187 
L 797.997969 186.632187 
" style="fill: none; stroke: #ccbb44; stroke-width: 1.5; stroke-linecap: square"/>
    </g>
    <g id="text_25">
     <!-- 7.00 -->
     <g transform="translate(809.197969 191.532187) scale(0.14 -0.14)">
      <defs>
       <path id="DejaVuSans-37" d="M 525 4666 
L 3525 4666 
L 3525 4397 
L 1831 0 
L 1172 0 
L 2766 4134 
L 525 4134 
L 525 4666 
z
" transform="scale(0.015625)"/>
      </defs>
      <use xlink:href="#DejaVuSans-37"/>
      <use xlink:href="#DejaVuSans-2e" x="63.623047"/>
      <use xlink:href="#DejaVuSans-30" x="95.410156"/>
      <use xlink:href="#DejaVuSans-30" x="159.033203"/>
     </g>
    </g>
    <g id="line2d_42">
     <path d="M 769.997969 207.181562 
L 783.997969 207.181562 
L 797.997969 207.181562 
" style="fill: none; stroke: #000000; stroke-width: 1.5; stroke-linecap: square"/>
    </g>
    <g id="text_26">
     <!-- 8.00 -->
     <g transform="translate(809.197969 212.081562) scale(0.14 -0.14)">
      <use xlink:href="#DejaVuSans-38"/>
      <use xlink:href="#DejaVuSans-2e" x="63.623047"/>
      <use xlink:href="#DejaVuSans-30" x="95.410156"/>
      <use xlink:href="#DejaVuSans-30" x="159.033203"/>
     </g>
    </g>
   </g>
  </g>
 </g>
 <defs>
  <clipPath id="pbb09579b27">
   <rect x="51.32" y="28.32" width="698.81" height="502.12"/>
  </clipPath>
 </defs>
</svg>
